<svg width="80" height="78" viewBox="0 0 80 78" fill="none" xmlns="http://www.w3.org/2000/svg">
<mask id="mask0_0_4" style="mask-type:luminance" maskUnits="userSpaceOnUse" x="0" y="0" width="80" height="78">
<path d="M79.75 0H0.25V78H79.75V0Z" fill="white"/>
</mask>
<g mask="url(#mask0_0_4)">
<path d="M69.4459 56.2485C64.5399 60.5381 58.0083 63.6371 50.7713 65.1672C53.9422 63.1317 56.7461 60.6955 59.0749 57.9526C59.0889 57.9362 59.1033 57.9201 59.1172 57.9036C59.2534 57.7426 59.3866 57.5798 59.5193 57.4168C59.6133 57.3017 59.707 57.1864 59.7994 57.0701C59.9035 56.9388 60.0069 56.8068 60.1092 56.6741C60.2342 56.5118 60.357 56.3482 60.4789 56.184C60.5548 56.0815 60.6315 55.9795 60.7064 55.8761C60.905 55.6018 61.1 55.3257 61.2893 55.0462C61.5422 54.6729 61.7853 54.2952 62.0208 53.9141H71.8412C71.1008 54.7195 70.3027 55.4993 69.4459 56.2485ZM40.2528 66.257C38.0278 66.257 35.7977 66.1126 33.6208 65.8317C29.1668 63.5263 25.3025 60.4593 22.2927 56.8553C22.2641 56.821 22.2371 56.7857 22.2087 56.7514C22.0073 56.5082 21.8081 56.2636 21.6146 56.0155C21.5195 55.8936 21.429 55.769 21.3358 55.6462C21.2121 55.4827 21.086 55.3207 20.9658 55.1553C20.7545 54.8652 20.5483 54.5721 20.3479 54.2758C20.2665 54.1558 20.1868 54.035 20.1075 53.9141H60.3982C60.3187 54.035 60.239 54.1558 60.1578 54.2758C59.9572 54.5721 59.7512 54.8652 59.5397 55.1553C59.4193 55.3207 59.2934 55.4827 59.1696 55.6462C59.0765 55.769 58.9862 55.8936 58.8909 56.0155C58.7073 56.2507 58.5182 56.4825 58.3276 56.7136C58.2886 56.7605 58.2515 56.8089 58.2125 56.8558C55.2027 60.4596 51.3387 63.5266 46.8849 65.8317C44.7078 66.1126 42.4777 66.257 40.2528 66.257ZM8.66433 53.9141H18.4847C18.7202 54.2952 18.9633 54.6729 19.2164 55.0462C19.4058 55.326 19.6011 55.6025 19.7999 55.877C19.8738 55.9792 19.9497 56.0798 20.0248 56.1813C20.1477 56.3469 20.2717 56.5121 20.398 56.676C20.4989 56.8073 20.6011 56.9378 20.7042 57.0677C20.7983 57.1858 20.8935 57.3034 20.9893 57.4205C21.1206 57.5817 21.2522 57.7425 21.3868 57.9017C21.4039 57.9218 21.4215 57.9417 21.4388 57.9617C23.766 60.701 26.5669 63.1339 29.7342 65.1674C22.4972 63.6371 15.9658 60.5381 11.0597 56.2485C10.203 55.4993 9.40483 54.7195 8.66433 53.9141ZM29.3472 11.371C26.2478 13.4126 23.5099 15.8407 21.2387 18.5623C21.2261 18.5774 21.2133 18.5921 21.2006 18.6072C21.0681 18.7666 20.9383 18.9278 20.8091 19.0893C20.7171 19.2038 20.6256 19.3185 20.5351 19.4338C20.4339 19.564 20.3334 19.6942 20.234 19.8254C20.1118 19.9865 19.9919 20.1489 19.8729 20.3119C19.7991 20.4132 19.7243 20.514 19.6517 20.616C19.4581 20.8877 19.268 21.1612 19.0835 21.4377C18.7287 21.9696 18.3926 22.51 18.0732 23.057H8.20435C13.0423 17.5416 20.462 13.315 29.3472 11.371ZM47.3243 10.686C51.6799 13.0097 55.4549 16.0711 58.39 19.6456C58.4002 19.6582 58.41 19.6713 58.4206 19.684C58.635 19.9461 58.8456 20.2106 59.0512 20.478C59.1233 20.572 59.1914 20.6681 59.2623 20.7628C59.4039 20.951 59.5463 21.1389 59.6831 21.3297C59.8888 21.617 60.0895 21.907 60.285 22.2C60.4739 22.4832 60.6572 22.7692 60.8357 23.057H19.67C19.8485 22.7692 20.0316 22.4832 20.2205 22.2C20.416 21.9072 20.6165 21.6172 20.8224 21.3298C20.9742 21.118 21.1319 20.9092 21.2893 20.7004C21.3449 20.6268 21.3979 20.5517 21.454 20.4787C24.4741 16.5461 28.4911 13.1882 33.1813 10.686C35.5079 10.3646 37.8859 10.1998 40.2528 10.1998C42.6194 10.1998 44.9976 10.3646 47.3243 10.686ZM72.3013 23.057H62.4323C62.1129 22.51 61.7768 21.9696 61.422 21.4377C61.2375 21.161 61.0474 20.8874 60.8537 20.6157C60.7813 20.5142 60.707 20.4139 60.6334 20.3131C60.5141 20.1494 60.3937 19.9864 60.271 19.8245C60.1721 19.6941 60.0721 19.5643 59.9712 19.435C59.8803 19.3186 59.7879 19.2031 59.6952 19.0877C59.5667 18.9271 59.4376 18.7668 59.3056 18.6081C59.2917 18.5913 59.2772 18.575 59.2632 18.5582C56.9929 15.8381 54.256 13.4114 51.1583 11.371C60.0437 13.315 67.4632 17.5416 72.3013 23.057ZM66.5807 37.7998C66.526 33.1781 65.3643 28.619 63.1889 24.4284H73.4303C76.502 28.4112 78.2763 32.98 78.3758 37.7998H66.5807ZM66.565 39.1713H78.3578C78.1402 43.8998 76.2894 48.5035 73.0238 52.5427H62.8227C65.1212 48.3706 66.4002 43.8127 66.565 39.1713ZM15.3089 39.1713H65.1966C65.0229 43.8264 63.6713 48.3955 61.2485 52.5427H19.2572C16.8343 48.3955 15.4826 43.8264 15.3089 39.1713ZM13.9404 39.1713C14.1054 43.8127 15.3843 48.3706 17.683 52.5427H7.48167C4.21611 48.5035 2.3655 43.8998 2.14769 39.1713H13.9404ZM18.8686 24.4284H61.6371C63.9284 28.5962 65.1552 33.1665 65.2129 37.7998H15.2926C15.3504 33.1665 16.5771 28.5962 18.8686 24.4284ZM13.9247 37.7998H2.12974C2.22918 32.98 4.00372 28.4112 7.07533 24.4284H17.3166C15.1413 28.619 13.9796 33.1781 13.9247 37.7998ZM47.7581 9.36088L47.7557 9.3595L47.6371 9.34288C45.2088 9.00156 42.7244 8.82842 40.2528 8.82842C37.7813 8.82842 35.2967 9.00156 32.8684 9.34288L32.75 9.3595L32.7474 9.36088C14.2029 12.0127 0.755859 24.1378 0.755859 38.2284C0.755859 43.7613 2.85386 49.157 6.74017 53.797V53.9141H6.8389C7.83333 55.0891 8.94084 56.2156 10.1607 57.2822C16.0793 62.4569 24.2578 65.9619 33.2005 67.1606L33.2032 67.1619L33.3207 67.1774C35.5949 67.4767 37.9273 67.6284 40.2528 67.6284C42.5784 67.6284 44.9107 67.4767 47.185 67.1774L47.3024 67.1619L47.3054 67.1606C56.2479 65.9619 64.4263 62.4569 70.3451 57.2822C76.4096 51.9796 79.7498 45.2128 79.7498 38.2284C79.7498 24.1378 66.3027 12.0127 47.7581 9.36088Z" fill="#D9D9D9"/>
<path d="M52.7343 64.049C52.7343 71.1388 47.151 76.8857 40.2635 76.8857H38.5316C31.6443 76.8857 26.061 71.1388 26.061 64.049V13.9509C26.061 6.86146 31.6443 1.11432 38.5316 1.11432H40.2635C47.151 1.11432 52.7343 6.86146 52.7343 13.9509V64.049Z" fill="black"/>
<path d="M53.8457 13.9509C53.8457 10.23 52.4365 6.73029 49.8779 4.09647C47.3116 1.45493 43.8971 7.62939e-06 40.2636 7.62939e-06H38.5317C31.0425 7.62939e-06 24.9497 6.25835 24.9497 13.9509V64.049C24.9497 71.7417 31.0425 78 38.5317 78H40.2636C43.8971 78 47.3116 76.5453 49.8779 73.9035C52.4365 71.2697 53.8457 67.77 53.8457 64.049V13.9509ZM51.623 64.049C51.623 67.1857 50.4377 70.1332 48.2856 72.3485C46.1413 74.5558 43.2924 75.7714 40.2636 75.7714H38.5317C32.2681 75.7714 27.1725 70.5127 27.1725 64.049V13.9509C27.1725 7.48715 32.2681 2.22858 38.5317 2.22858H40.2636C43.2924 2.22858 46.1413 3.44418 48.2856 5.6515C50.4377 7.86669 51.623 10.8141 51.623 13.9509V64.049Z" fill="#D9D9D9"/>
<path d="M47.3059 13.8429C47.3059 13.8429 47.9044 13.5001 48.0753 13.4572V14.8286L47.3059 14.5715V13.8429ZM47.9044 10.8001C47.9044 10.8001 48.3318 10.7572 48.2036 11.4429C47.9044 11.4429 47.9044 11.4429 47.9044 11.4429V10.8001ZM45.5534 9.81435C44.7839 10.3715 44.7839 10.5001 43.4588 9.51435C43.3733 9.34293 43.4161 8.61435 43.4161 8.61435C43.4161 8.61435 43.6298 7.88578 45.6816 8.22864C46.109 8.61435 46.6647 9.25721 45.5534 9.81435ZM44.5275 11.5715H44.8694V12.4286C44.8694 12.4286 44.5275 12.2144 44.5275 11.5715ZM45.0404 14.1001C44.6984 13.8001 44.6984 13.8001 44.6984 13.8001L44.7412 13.0715C44.7412 13.0715 45.1686 13.2858 45.0404 14.1001ZM44.4847 15.7286C44.3137 15.5572 43.8863 15.2144 44.442 14.3144C44.442 14.3144 45.0404 14.7858 44.4847 15.7286ZM42.4757 16.2001C41.1078 16.7572 40.0819 16.9286 37.4317 16.8001C36.6623 16.7144 35.9356 15.9429 36.1921 15.6001C36.4485 15.2572 37.3462 15.8572 37.8164 16.1144H40.0392C40.0392 16.1144 43.2451 15.9429 43.5443 13.3286L43.5871 11.9572L43.9718 11.9144C43.9718 11.9144 44.6129 15.0858 42.4757 16.2001ZM43.0314 16.6715C42.8176 16.3715 42.8176 16.3715 42.8176 16.3715C42.8176 16.3715 43.5016 16.1144 43.9718 15.8144C43.9718 15.8144 43.6298 16.6286 43.0314 16.6715ZM40.1247 19.8001C39.9537 19.7144 39.8254 19.4572 40.1247 19.2001C40.1247 19.2001 40.5949 19.7144 40.1247 19.8001ZM40.9368 24.6429C40.6804 24.6429 40.2529 23.1858 40.2102 22.0286C40.2102 22.0286 40.9796 23.1001 40.9368 24.6429ZM40.2529 25.5858V25.4144H40.8086V25.5858H40.2529ZM40.4666 27.0429C40.1674 27.0429 39.8254 27.1715 39.5262 26.6144C39.5262 26.6144 39.7827 26.1429 40.5094 26.1429C40.5094 26.1429 42.0055 26.7858 40.4666 27.0429ZM42.3902 30.3001C41.92 30.0858 41.407 29.7858 41.1933 29.2715C41.8345 29.6572 43.1169 28.9715 43.758 28.4572C44.6129 29.4001 46.7075 29.7429 46.7075 29.7429C45.4679 31.3286 40.3384 31.1572 40.3384 31.1572C40.3384 31.1572 40.3384 31.1572 40.3384 30.5572C41.1078 30.6429 41.5353 30.5144 42.3902 30.3001ZM44.0573 23.5715C45.5106 25.3715 44.5275 26.7858 44.271 27.1286C42.4329 26.0144 44.0573 23.5715 44.0573 23.5715ZM44.4847 33.0001C43.4161 33.1715 40.3811 33.8572 34.0548 32.9144C33.2854 32.7001 32.3877 32.0572 32.4304 31.3715C32.4304 31.3715 38.3721 32.4429 46.0236 31.3286C46.1945 31.5429 46.451 32.4858 44.4847 33.0001ZM42.6467 34.6715C42.6467 34.6715 43.2451 33.1715 44.1855 33.7286C44.271 34.0286 44.1427 34.8429 42.6467 34.6715ZM41.1506 34.8001C41.1506 34.8001 41.749 33.3001 42.6894 33.8572C42.7749 34.1572 42.6467 34.9715 41.1506 34.8001ZM41.92 40.9715C41.92 40.9715 41.6635 41.5715 41.2788 41.6572H37.7309C37.7309 41.6572 36.9187 41.5286 36.8332 40.8858C36.8332 40.8858 36.705 40.2001 38.0729 40.1144H41.1933C41.1933 40.1144 41.92 40.2858 41.92 40.9715ZM42.5184 53.1858C41.407 53.1858 41.407 53.1858 41.407 53.1858C41.407 53.1858 40.0819 44.3572 40.0819 42.9001C40.0819 42.9001 40.6376 42.4715 42.5184 53.1858ZM39.4835 43.4572H39.8254C39.8254 43.4572 40.6376 50.3144 40.8086 53.1001C39.6545 53.1429 39.6545 53.1001 39.6545 53.1001L39.4835 43.4572ZM36.8332 54.3429C36.8332 54.3429 38.1156 54.9429 42.091 54.3858C42.091 54.3858 39.9537 55.8858 36.8332 54.3429ZM37.8591 58.0715C37.8591 58.0715 39.056 57.1286 40.6804 58.0715C40.6804 58.0715 39.2697 59.3144 37.8591 58.0715ZM38.0301 59.4858C38.0301 59.4858 38.9278 60.2572 40.6376 59.4858C40.6376 59.4858 41.1506 59.9572 40.3384 60.4715C39.7399 60.7715 38.5431 60.7286 38.1584 60.3858C37.7737 60.0429 37.7737 59.8286 38.0301 59.4858ZM42.0055 61.5429C42.2192 61.8001 43.2878 62.9144 40.9796 63.3429H38.2011C38.2011 63.3429 36.4485 63.1715 36.2776 62.1858C36.2776 62.1858 36.705 60.9858 36.9187 61.9715C37.2607 61.9715 37.2607 61.8429 37.6027 61.2858C37.9446 61.6715 38.0301 63.2144 38.7141 61.6715C39.0133 62.2715 39.3552 63.2572 39.6545 62.1429H40.1247C40.1247 62.1429 40.2102 63.0858 40.8941 61.5429C41.236 61.8858 41.8345 62.2715 42.0055 61.5429ZM38.885 43.4572H39.227L39.056 53.1001C39.056 53.1001 39.056 53.1429 37.9019 53.1001C38.0729 50.3144 38.885 43.4572 38.885 43.4572ZM38.6286 42.9001C38.6286 44.3572 37.3034 53.1858 37.3034 53.1858C37.3034 53.1858 37.3034 53.1858 36.1921 53.1858C38.0729 42.4715 38.6286 42.9001 38.6286 42.9001ZM38.5374 35.1865C37.3633 34.377 37.8097 33.6858 38.0681 33.5145C39.1027 33.6863 38.5374 35.1865 38.5374 35.1865ZM38.4834 37.4649C38.6681 37.9379 38.461 38.3996 38.2174 38.5175C37.7401 37.7041 38.4834 37.4649 38.4834 37.4649ZM40.3428 38.5175C40.0992 38.3996 39.8921 37.9379 40.0768 37.4649C40.0768 37.4649 40.82 37.7041 40.3428 38.5175ZM41.3643 38.3144C41.0651 38.3144 40.6376 37.9286 40.5949 37.3286C40.5949 37.3286 41.4498 37.2001 41.3643 38.3144ZM40.1506 35.1865C40.1506 35.1865 39.5856 33.6863 40.6202 33.5145C40.8785 33.6858 41.325 34.377 40.1506 35.1865ZM41.2788 38.9144C41.2788 38.9144 41.7917 39.5144 40.5949 39.7715C39.6545 39.8144 38.0301 39.7715 38.0301 39.7715C38.0301 39.7715 36.9187 39.4715 37.3462 38.9144C37.3462 38.9144 40.0392 39.1286 41.2788 38.9144ZM39.7399 37.9715C39.7399 38.2556 39.5486 38.4858 39.3125 38.4858C39.0764 38.4858 38.885 38.2556 38.885 37.9715C38.885 37.6874 39.0764 37.4572 39.3125 37.4572C39.5486 37.4572 39.7399 37.6874 39.7399 37.9715ZM39.3125 34.7144C39.0528 34.7144 38.8423 34.5033 38.8423 34.2429C38.8423 33.9825 39.0528 33.7715 39.3125 33.7715C39.572 33.7715 39.7827 33.9825 39.7827 34.2429C39.7827 34.5033 39.572 34.7144 39.3125 34.7144ZM37.9653 37.3286C37.9226 37.9286 37.4951 38.3144 37.1959 38.3144C37.1104 37.2001 37.9653 37.3286 37.9653 37.3286ZM35.999 33.8572C36.9394 33.3001 37.5379 34.8001 37.5379 34.8001C36.0418 34.9715 35.9135 34.1572 35.999 33.8572ZM34.5029 33.7286C35.4433 33.1715 36.0418 34.6715 36.0418 34.6715C34.5457 34.8429 34.4174 34.0286 34.5029 33.7286ZM32.003 29.7429C32.003 29.7429 34.0975 29.4001 34.9524 28.4572C35.5936 28.9715 36.876 29.6572 37.5172 29.2715C37.3034 29.7858 36.7905 30.0858 36.3203 30.3001C37.1752 30.5144 37.6027 30.6429 38.3721 30.5572C38.3721 31.1572 38.3721 31.1572 38.3721 31.1572C38.3721 31.1572 33.2426 31.3286 32.003 29.7429ZM34.525 23.5715C35.9783 25.3715 34.9952 26.7858 34.7387 27.1286C32.9007 26.0144 34.525 23.5715 34.525 23.5715ZM37.6027 26.6144C37.6027 26.6144 37.8591 26.1429 38.5858 26.1429C38.5858 26.1429 40.0819 26.7858 38.5431 27.0429C38.2439 27.0429 37.9019 27.1715 37.6027 26.6144ZM38.3721 25.3715V25.6286H37.9446V25.3715H38.3721ZM38.2866 21.9429C38.2439 23.4001 37.8591 24.1715 37.6882 24.3858C37.8591 22.6715 38.2866 21.9429 38.2866 21.9429ZM38.1156 19.5429C38.1156 19.5429 38.1584 19.2429 38.6713 19.2858C38.7995 19.6286 38.7995 19.6286 38.7995 19.6286L38.1156 19.5429ZM39.8254 22.1144C40.3384 23.4001 40.2102 24.5572 40.0819 24.8144C39.1843 23.8286 39.8254 22.1144 39.8254 22.1144ZM38.5431 24.8572C38.3721 22.5001 39.0133 21.6429 39.0133 21.6429C39.0988 23.4429 38.8423 24.8572 38.5431 24.8572ZM39.9537 31.0286C39.9537 31.0286 39.9537 30.9858 39.1843 31.0286C37.9446 29.1429 39.398 27.6858 39.398 27.6858C40.8086 28.9286 39.9537 31.0286 39.9537 31.0286ZM38.9278 25.7144V25.2858H39.8254V25.7144H38.9278ZM38.1584 17.5286C38.1584 17.5286 38.7995 17.3144 39.398 18.7286C39.4407 18.2572 40.0392 18.0001 39.4407 17.7858C39.0988 17.4429 39.0988 17.4429 39.0988 17.4429L39.569 17.3572C39.569 17.3572 39.7827 17.9144 40.1674 17.5715C40.2956 18.0001 40.2956 18.0001 40.2956 18.0001L39.5262 19.8429L39.3125 19.8001L39.1843 19.1144L38.1584 17.5286ZM37.3462 17.9144C37.3462 17.9144 35.9783 18.0858 35.9356 16.7572L37.4744 17.1858L37.3462 17.9144ZM34.9514 13.474C34.9514 13.474 33.5848 13.0173 34.3251 9.19224C34.6098 8.22161 35.521 6.85155 36.7737 7.53658C37.457 7.93618 36.9444 9.02081 36.432 9.99144C35.8056 10.9621 35.0084 12.6176 34.9514 13.474ZM35.7219 17.7001C35.7219 17.7001 35.1662 17.9572 34.8242 17.7001C34.5677 17.3572 34.6105 16.5429 34.6532 16.2001C34.6532 16.2001 35.3372 17.0572 35.7219 17.0144V17.7001ZM31.1932 8.9639C31.1932 8.22161 31.364 7.42224 32.3891 7.13681C32.3891 7.13681 33.5849 6.7943 33.3572 9.02081C33.3572 10.4481 33.6417 12.6748 34.2112 13.5311C33.7557 13.4169 31.4211 10.7908 31.1932 8.9639ZM34.1403 17.1429C33.5846 17.2286 33.1571 16.9715 33.5418 16.2001C33.5418 16.2001 34.2258 16.0286 34.1403 17.1429ZM30.6808 14.3305C30.6808 14.3305 31.0224 12.6177 33.8127 15.1868C33.3002 15.4722 31.0793 15.9861 30.6808 14.3305ZM30.9085 10.905C31.7626 10.8479 33.0154 13.5882 33.0154 13.5882C32.1612 12.7319 31.421 11.7613 31.0793 11.8184C30.7376 11.8756 31.0224 12.7319 31.2502 13.3598C30.3392 12.7319 30.0545 10.9621 30.9085 10.905ZM35.2361 6.45179C35.2361 7.42241 34.5529 8.22161 34.1543 8.22161C34.1543 6.33761 35.2361 6.45179 35.2361 6.45179ZM35.2361 5.08155C36.1473 5.13864 36.3181 6.05218 36.3181 6.68013C36.0334 6.50887 35.8056 5.70967 34.8375 5.59533C34.382 5.65258 33.7557 5.93801 33.5849 6.68013C33.5849 6.68013 32.9584 5.25281 35.2361 5.08155ZM37.8556 5.3099C37.6847 6.22327 37.1723 6.68013 36.8307 6.3947C36.6028 5.70967 37.8556 5.3099 37.8556 5.3099ZM38.7667 4.11092C38.7667 4.11092 40.475 4.9103 38.7098 5.82367C38.5957 5.36698 38.7098 4.28218 36.8307 5.25282C36.8307 5.25282 36.7737 4.11092 38.7667 4.11092ZM37.0897 13.1572C37.2607 13.1572 36.876 13.9715 36.6623 14.2286C36.4485 14.4858 36.3203 14.6144 36.1066 14.4858C36.2348 13.4144 37.0897 13.1572 37.0897 13.1572ZM37.6454 13.4572C37.6454 14.7001 37.4317 14.8286 37.218 14.9572C36.705 13.9286 37.6454 13.4572 37.6454 13.4572ZM38.4148 13.5858C39.1843 14.3144 38.5858 15.3001 38.3293 15.3429C37.4744 14.1858 38.4148 13.5858 38.4148 13.5858ZM40.0392 15.1715C39.6545 15.2144 39.2697 15.0001 39.3125 13.5858C39.3125 13.5858 40.2102 13.4144 40.0392 15.1715ZM39.9055 11.7613C39.7346 12.7888 38.8806 12.8461 38.1402 12.7319C38.311 11.3615 39.9055 11.7613 39.9055 11.7613ZM40.1674 13.0286C40.1674 13.0286 41.4498 13.0715 41.1933 14.7429C40.9796 14.8715 39.8254 14.8715 40.1674 13.0286ZM42.3047 14.1001C42.0482 14.3144 41.4925 14.3144 41.236 12.8144C41.236 12.8144 42.4329 12.9429 42.3047 14.1001ZM42.8176 12.5144V13.0715L42.4329 13.1144C42.4329 13.1144 42.7749 12.7286 42.8176 12.5144ZM43.7362 5.6543C43.5571 5.74053 43.3036 5.58384 43.1697 5.30424C43.0358 5.02481 43.0726 4.72841 43.2516 4.64219C43.4306 4.55613 43.684 4.71281 43.8179 4.99224C43.9518 5.27184 43.9152 5.56824 43.7362 5.6543ZM43.1107 6.32716C43.0786 6.5063 42.8722 6.61842 42.6499 6.57813C42.4278 6.53785 42.2739 6.35989 42.3061 6.18092C42.3385 6.00195 42.5451 5.88967 42.7672 5.92978C42.9895 5.97024 43.1432 6.14819 43.1107 6.32716ZM44.7538 5.26772C44.9597 5.17481 45.1869 5.23413 45.2613 5.40007C45.336 5.56584 45.2293 5.77567 45.0235 5.86858C44.8178 5.9615 44.5902 5.90236 44.5157 5.73642C44.4413 5.57064 44.5481 5.36064 44.7538 5.26772ZM47.9464 26.7429C48.3311 26.3572 48.5021 26.2286 48.5876 25.8001C48.5876 25.8001 49.9555 29.4858 47.3907 29.3144C47.3052 28.9286 46.6641 27.6858 47.9464 26.7429ZM31.2763 29.3144C28.7116 29.4858 30.0794 25.8001 30.0794 25.8001C30.1649 26.2286 30.3359 26.3572 30.7206 26.7429C32.003 27.6858 31.3618 28.9286 31.2763 29.3144ZM46.2262 14.4446L47.4788 15.1868L49.5858 16.7853L48.5038 14.5588V13.0173L49.6997 12.5606L48.8456 11.6471C48.6179 9.53475 47.7635 8.6783 46.8525 8.33578C45.8845 7.1939 44.6318 7.13681 44.6318 7.13681L44.6887 6.45179C46.2262 5.65241 45.2581 4.85321 44.4609 4.73904C42.411 2.85504 42.5818 5.48116 42.5818 5.48116C41.6709 5.76641 41.7278 6.22378 41.7278 6.22378C41.6139 7.13715 43.2651 7.08007 43.2651 7.08007C44.1192 7.08007 43.6067 7.59401 43.6067 7.59401C41.8984 8.56447 42.8096 10.2772 42.8096 10.2772V11.99H41.8986C38.7098 10.049 36.6028 12.5039 36.0903 13.0748C35.9195 12.1041 35.9765 11.99 36.8307 10.7339C37.7417 9.36367 37.7986 7.76527 37.7986 7.42258C40.5318 6.22361 40.0193 4.39687 39.8485 4.11127C38.7096 2.85538 37.5709 3.54041 36.2611 4.45396C33.9835 3.82601 32.5029 5.99527 32.5029 5.99527C32.5029 5.99527 32.5029 5.99527 32.3891 6.33779C30.3392 7.47967 30.681 8.62138 30.681 9.2495C30.681 9.87761 30.7379 10.0487 30.453 10.2772C28.9725 11.3048 29.8837 12.675 30.3961 13.4171C28.3462 15.2442 31.7058 16.3288 32.5599 16.2717C32.2183 17.8132 33.471 18.2699 33.471 18.2699C33.471 18.2699 33.471 18.2699 34.7808 18.2128C35.6348 19.1834 36.2613 18.6695 36.2613 18.6695C36.2613 18.6695 36.2613 18.6695 37.2864 18.6695C37.8557 17.8132 38.2543 18.2126 38.1973 18.441C38.0835 18.8977 37.7417 19.012 37.7417 19.012V20.0397C37.7417 20.0397 38.0833 20.3252 38.2543 20.6106C37.6849 21.581 37.4001 23.5792 37.2292 24.6069C37.0015 25.9772 37.2862 26.9476 37.5709 27.5756C37.8556 28.6033 37.2292 28.6033 36.8307 28.4891C35.1222 28.2608 35.2932 27.2901 35.2932 27.2901C35.8626 26.6051 36.0334 24.5498 35.3501 23.6363C34.7237 22.7229 34.7237 21.8665 34.6098 21.1814C34.4959 22.1521 34.3251 23.0654 34.0404 23.408C32.6168 24.8925 33.4141 26.8905 34.0404 27.3472C34.6669 27.8041 33.8696 28.432 33.3002 28.7176C31.8766 29.5168 31.7058 29.0601 31.8197 28.7176C31.9336 27.9755 31.8766 26.8334 31.0793 26.2626C30.1684 25.6916 30.3961 24.4357 30.6808 23.5221C28.1184 26.548 29.4849 29.2314 30.1114 29.631C31.4779 30.0306 31.5918 31.0012 31.8195 31.6292C31.8195 32.9996 32.5028 33.2848 33.1293 33.399C33.8696 33.4561 33.7557 33.9129 33.8127 34.1413C35.0084 35.283 36.4318 35.283 36.4318 35.283V36.1394C36.4318 36.1394 36.6597 36.3678 37.4568 36.7103C36.6597 37.2812 36.8305 38.366 37.0013 38.7085C36.6597 39.051 36.6028 39.5078 36.8305 39.6791C35.0082 40.8208 37.0583 42.5906 37.6846 42.7048C37.5138 44.5319 35.6347 52.6389 35.5208 53.8379C35.5777 55.4936 37.4568 57.3203 37.4568 57.3203V59.4326C37.4568 59.4326 36.0332 61.2026 35.1792 62.4016C34.4957 63.5435 33.1293 63.6575 33.1293 63.6575V63.8288C33.6417 64.2283 34.9514 64.1714 36.0332 64.2285C36.0902 65.3133 36.8305 64.7994 37.286 64.5711C37.6276 64.2285 37.7986 64.4569 37.7986 64.4569L39.3929 65.4844C39.3929 65.4844 40.0193 65.0848 40.361 64.8564C40.7026 64.6281 40.9874 64.5711 41.3291 64.6281C41.8986 65.0277 42.4109 65.2561 42.4109 65.2561C42.4109 65.2561 42.4109 65.2561 42.6388 65.1419C42.6388 64.6852 42.5818 64.4569 42.8665 64.1714C43.8916 64.457 45.5427 64.0002 45.5427 64.0002V63.6575C44.5748 63.8288 43.8914 63.0867 43.8914 63.0867L41.0444 59.2614V57.3774C41.8986 57.1489 42.9235 55.208 43.0373 54.0662C42.9235 50.9262 40.9874 43.39 40.8736 42.6479C43.0373 42.2483 42.6388 40.2501 41.9555 39.8505C42.1265 39.2226 41.8986 39.1653 41.6707 38.6516C42.5247 37.9665 41.4429 36.5963 41.4429 36.5963C41.8986 36.4821 42.411 36.1396 42.411 36.1396C42.411 36.1396 42.411 36.1396 42.411 35.2832C43.6069 35.3973 44.5748 34.6552 44.9734 34.3698C45.0303 33.3992 45.2581 33.4562 45.6566 33.285C46.1121 33.285 46.5678 32.8283 46.7386 32.3145C46.8525 31.1156 47.5357 30.4304 48.1051 30.0878C49.0163 29.6312 49.415 28.889 49.415 27.9184C49.415 26.0915 48.5038 24.0933 48.219 23.8077C48.3898 24.7784 48.1051 25.6348 48.0482 26.0344C46.5676 27.2903 46.6817 28.6034 46.8525 28.889C47.4218 29.4599 46.4539 29.3457 45.7705 29.0603C43.9483 27.8613 44.6887 27.5186 44.6887 27.5186C45.486 27.0049 45.4858 24.9496 45.1442 24.3788C44.6318 23.7508 44.1763 22.0379 44.1193 21.1245C44.0624 21.7526 43.7775 22.7802 43.4928 23.5794C42.297 25.9202 42.9804 26.7194 43.4359 27.3474C44.1192 27.9755 42.9235 28.0326 42.3541 28.318C40.7597 28.946 40.8166 27.5186 40.8166 27.5186C41.7847 26.8336 41.6707 25.5777 41.5568 24.7784C41.272 22.6089 40.2471 20.6677 40.2471 20.6677L40.7597 20.0966V19.0689C40.361 19.0118 40.4179 18.6122 40.4179 18.6122C40.5887 17.6989 41.6139 17.5276 41.9555 17.4705C44.0626 17.4134 45.2581 15.2438 45.2581 15.2438L45.2011 10.905L46.6247 9.82019C47.1941 9.47767 47.251 9.99144 47.251 9.99144V11.1904C46.226 11.8184 47.5357 12.1038 47.5357 12.1038L47.251 13.3598L46.2262 14.4446Z" fill="#D9D9D9"/>
<path d="M49.2649 67.9289C49.2649 67.9289 46.3875 70.0059 40.4026 70.0445C38.5226 69.9291 32.3076 69.66 29.6987 67.9289L29.6604 66.121C29.6604 66.121 33.6501 68.2366 40.5944 67.8903C42.3591 67.7749 48.1905 67.0827 49.2649 66.3134V67.9289ZM49.994 67.0057V65.5056C50.3394 65.1594 50.6844 64.5055 50.5695 64.1593C49.0733 61.4669 42.6279 61.813 42.6279 61.813C42.6279 61.813 42.6279 61.813 43.0499 62.467C44.9297 62.2747 46.7715 62.6208 48.4596 63.1976C50.5314 63.7747 49.4569 64.4672 49.035 64.7749C46.4646 66.0444 43.0116 66.3134 40.5563 66.2749C36.3744 66.2367 32.0008 65.6211 30.5813 65.0055C28.6631 64.1208 29.2384 63.5823 29.929 63.2362C33.267 61.7746 35.4919 62.2361 35.4919 62.2361C35.4919 62.2361 35.4919 62.2361 36.1442 61.3897C27.5888 61.9668 28.3177 64.1593 28.3177 64.1593C28.3177 64.6594 28.9698 65.7747 28.9698 65.7747V66.6596C28.2026 67.5444 28.3945 68.3522 29.2001 68.8522C32.2693 70.7755 37.3334 71.16 39.4052 71.1214C43.2416 71.3523 47.3084 70.1597 49.3034 69.121C51.3369 68.1979 49.994 67.0057 49.994 67.0057Z" fill="#D9D9D9"/>
<path d="M45.2657 8.86916C45.2657 9.06631 45.1062 9.22607 44.9097 9.22607C44.7132 9.22607 44.5537 9.06631 44.5537 8.86916C44.5537 8.67202 44.7132 8.51225 44.9097 8.51225C45.1062 8.51225 45.2657 8.67202 45.2657 8.86916Z" fill="#D9D9D9"/>
<path d="M31.3784 14.2243C31.3784 14.2243 32.4071 13.9861 33.0402 15.0968C32.4467 15.2556 30.9433 14.8589 31.3784 14.2243Z" fill="#D9D9D9"/>
<path d="M32.6048 10.0593C32.5653 10.1782 31.8135 9.74196 32.328 8.5519C32.328 8.5519 32.9213 8.75041 32.6048 10.0593ZM33.2379 9.86092C33.2774 7.48081 32.2488 8.07584 32.2488 8.07584C31.8926 8.11561 31.6156 8.31378 31.7345 9.18653C32.0115 11.17 33.2774 12.1221 33.2774 12.1221C33.2774 12.1221 33.1983 11.0906 33.2379 9.86092Z" fill="#D9D9D9"/>
<path d="M34.8601 10.7334C34.6623 8.94829 35.8096 8.74994 35.8096 8.74994C35.6514 9.62268 35.0579 10.6144 34.8601 10.7334ZM36.3241 8.19451C35.6909 8.07554 35.2558 8.23428 35.2558 8.23428C33.9501 9.9796 34.6226 12.082 34.8206 12.5977C34.7414 12.0424 35.0974 11.4076 35.8492 10.2177C36.6009 9.02766 36.3241 8.19451 36.3241 8.19451Z" fill="#D9D9D9"/>
<path d="M1.50411 58.5078C1.34822 58.4298 1.04686 58.1919 0.75873 57.8185C-0.0704685 56.7448 0.173516 55.6707 1.06069 54.982C2.11797 54.1614 3.28546 54.4642 4.01133 55.4043C4.29253 55.7684 4.43258 56.102 4.46431 56.2763L3.79882 56.5571C3.75173 56.3725 3.65387 56.1315 3.45819 55.8779C3.03112 55.3249 2.36103 55.1523 1.66687 55.6909C1.04633 56.1726 0.940265 56.8446 1.42075 57.4669C1.58799 57.6834 1.80733 57.8818 1.97744 57.9783L1.50411 58.5078Z" fill="#D9D9D9"/>
<path d="M5.47015 57.1944L4.38487 58.2492L5.40054 59.2996L6.48582 58.2448L7.1009 58.8809L4.28764 61.6152L3.67256 60.9792L4.8454 59.8392L3.82971 58.7889L2.65682 59.9287L2.04175 59.2927L4.85508 56.5583L5.47015 57.1944Z" fill="#D9D9D9"/>
<path d="M8.3908 59.9951L5.80641 62.9478L5.14233 62.3636L7.72656 59.4105L8.3908 59.9951Z" fill="#D9D9D9"/>
<path d="M6.65381 63.6935L9.00902 60.554L9.83603 61.1776L9.6233 62.8185C9.56106 63.2896 9.44871 63.8174 9.32722 64.2802L9.33644 64.2871C9.60574 63.8409 9.90976 63.4065 10.2662 62.9315L10.951 62.0183L11.6015 62.509L9.24626 65.6484L8.5029 65.0879L8.74241 63.3724C8.81166 62.8921 8.90317 62.3339 9.03053 61.8539L9.0119 61.8397C8.72063 62.2765 8.39797 62.726 8.0136 63.2385L7.30428 64.1839L6.65381 63.6935Z" fill="#D9D9D9"/>
<path d="M13.7815 66.7083C14.0081 66.2942 14.2823 65.7998 14.5775 65.3043L14.5676 65.2985C14.2014 65.663 13.7753 66.0597 13.41 66.3771L12.2165 67.4477L11.6227 67.092L12.0387 65.5759C12.1675 65.1099 12.341 64.5688 12.5216 64.0726L12.5116 64.0666C12.2253 64.513 11.8952 65.0213 11.6247 65.4297L10.7964 66.6717L10.0928 66.2501L12.3173 63.0064L13.3304 63.6134L12.9857 64.9414C12.8659 65.3924 12.7151 65.8726 12.5545 66.3127L12.5744 66.3247C12.8968 65.9882 13.2741 65.6167 13.6154 65.3052L14.6378 64.3966L15.6358 64.9947L13.8056 68.4746L13.067 68.0321L13.7815 66.7083Z" fill="#D9D9D9"/>
<path d="M17.1676 68.2352L17.3019 67.3771C17.3433 67.1389 17.4069 66.8401 17.4512 66.6099L17.4353 66.6023C17.2888 66.7906 17.1043 67.0321 16.9549 67.2128L16.3844 67.8644L17.1676 68.2352ZM15.9857 68.4106L15.3091 69.2052L14.4785 68.8119L17.2348 65.7725L18.2808 66.2679L17.7114 70.3428L16.8494 69.9346L17.0054 68.8933L15.9857 68.4106Z" fill="#D9D9D9"/>
<path d="M18.8384 70.7825L19.4245 69.2849L19.1173 66.672L20.0642 67.0446L20.0881 68.0684C20.0977 68.3789 20.1025 68.6062 20.0954 68.8789L20.1064 68.8832C20.2767 68.6873 20.4461 68.5098 20.6563 68.2918L21.3684 67.5577L22.2938 67.9219L20.2577 69.5814L19.6608 71.106L18.8384 70.7825Z" fill="#D9D9D9"/>
<path d="M23.3828 70.6298L23.4032 69.7613C23.4129 69.5196 23.4369 69.2153 23.4505 68.9811L23.4338 68.9757C23.3133 69.1819 23.1621 69.4455 23.0378 69.6442L22.5577 70.3654L23.3828 70.6298ZM22.2342 70.9595L21.6677 71.8365L20.793 71.5562L23.126 68.1796L24.228 68.5325L24.1984 72.647L23.2903 72.3563L23.3085 71.3033L22.2342 70.9595Z" fill="#D9D9D9"/>
<path d="M58.6829 70.3085C58.5232 69.864 58.3353 69.3307 58.1606 68.7809L58.1496 68.7843C58.1794 69.301 58.1939 69.8835 58.1895 70.3683L58.1996 71.9741L57.5406 72.1846L56.6826 70.8682C56.4195 70.4629 56.13 69.9745 55.8787 69.5103L55.8675 69.5137C56.0117 70.0246 56.1731 70.6091 56.2993 71.0825L56.6794 72.5273L55.8985 72.7769L54.9463 68.9579L56.0707 68.5985L56.8353 69.7367C57.0931 70.1254 57.3522 70.5564 57.5748 70.9685L57.597 70.9614C57.5589 70.4965 57.5309 69.9672 57.5242 69.5041L57.522 68.1346L58.6296 67.7806L60.0192 71.4598L59.1995 71.7218L58.6829 70.3085Z" fill="#D9D9D9"/>
<path d="M60.8162 66.8854L62.2966 70.5226L61.4784 70.8574L59.998 67.2201L60.8162 66.8854Z" fill="#D9D9D9"/>
<path d="M63.4505 69.0372C63.713 69.0456 64.1009 68.9925 64.4407 68.827C64.8068 68.6487 64.9266 68.4024 64.8122 68.1665C64.7083 67.9516 64.4773 67.902 63.9826 67.9615C63.2954 68.0371 62.751 67.9005 62.4995 67.3816C62.2073 66.7786 62.4935 66.0754 63.3197 65.6731C63.7222 65.4768 64.0481 65.4154 64.3054 65.4132L64.4376 66.1394C64.2687 66.1375 63.964 66.1625 63.6242 66.3281C63.2792 66.4963 63.1906 66.7403 63.277 66.9185C63.3862 67.1439 63.628 67.1493 64.1745 67.1035C64.9085 67.0311 65.3536 67.216 65.5974 67.7193C65.8845 68.3117 65.6788 69.0339 64.7114 69.5052C64.3087 69.7014 63.8578 69.7848 63.606 69.7716L63.4505 69.0372Z" fill="#D9D9D9"/>
<path d="M66.9759 67.2462C67.2381 67.2324 67.6203 67.1471 67.9453 66.9539C68.2952 66.7457 68.3942 66.4901 68.2606 66.2648C68.1389 66.0592 67.9048 66.029 67.4168 66.1297C66.7382 66.2622 66.1844 66.1717 65.8906 65.6754C65.5495 65.099 65.7762 64.3744 66.566 63.9043C66.9511 63.6755 67.2705 63.587 67.5268 63.5632L67.7188 64.2758C67.5504 64.288 67.2489 64.3386 66.924 64.532C66.5941 64.7283 66.5262 64.9788 66.6271 65.1492C66.7546 65.3648 66.9959 65.3498 67.5367 65.2586C68.2622 65.1253 68.7211 65.2723 69.0059 65.7535C69.3412 66.3198 69.1961 67.0569 68.2712 67.6072C67.8862 67.8363 67.444 67.9571 67.1916 67.9648L66.9759 67.2462Z" fill="#D9D9D9"/>
<path d="M69.3287 62.1736L71.5643 65.3999L70.8385 65.9053L68.603 62.679L69.3287 62.1736Z" fill="#D9D9D9"/>
<path d="M73.8178 62.8518C74.2781 62.4676 74.1807 61.8129 73.6896 61.2218C73.2392 60.6799 72.5979 60.4267 72.1287 60.8183C71.6597 61.2101 71.7758 61.8869 72.2444 62.4512C72.717 63.02 73.3579 63.2359 73.8134 62.8553L73.8178 62.8518ZM74.2367 63.4197C73.3478 64.162 72.259 63.9259 71.5446 63.0661C70.7931 62.1612 70.8119 61.0001 71.6964 60.2615C72.6211 59.4895 73.7026 59.7621 74.3945 60.5952C75.2206 61.5895 75.1212 62.6811 74.2413 63.4161L74.2367 63.4197Z" fill="#D9D9D9"/>
<path d="M76.7346 61.1157L73.8696 58.4358L74.5754 57.6771L76.1806 58.0626C76.6411 58.1746 77.1527 58.3422 77.5988 58.5123L77.6066 58.5039C77.1927 58.1883 76.7939 57.8392 76.3603 57.4336L75.5271 56.6543L76.0825 56.0578L78.9475 58.7377L78.3128 59.4195L76.6366 58.9993C76.1676 58.8796 75.6237 58.7295 75.1611 58.5517L75.1452 58.5687C75.5475 58.9052 75.9594 59.2746 76.4268 59.7118L77.2898 60.519L76.7346 61.1157Z" fill="#D9D9D9"/>
</g>
</svg>
